<svg version="1.1" id="Layer_1" xmlns="http://www.w3.org/2000/svg" xmlns:xlink="http://www.w3.org/1999/xlink" x="0px" y="0px"
	 width="100%" viewBox="0 0 100 100" enable-background="new 0 0 100 100" xml:space="preserve">
<path fill="#010202" opacity="1.000000" stroke="none" 
	d="
M101.000000,37.000000 
	C101.000000,58.666660 101.000000,79.833321 101.000000,100.999992 
	C84.333344,101.000000 67.666687,101.000000 51.000034,101.000000 
	C34.333374,101.000000 17.666710,101.000000 1.000036,101.000000 
	C1.000024,67.666695 1.000024,34.333385 1.000012,1.000059 
	C34.333298,1.000039 67.666595,1.000039 100.999947,1.000020 
	C101.000000,12.833333 101.000000,24.666666 101.000000,37.000000 
M34.325615,92.708839 
	C38.377213,98.573105 42.814388,100.430786 48.742336,98.744598 
	C54.029202,97.240776 56.991600,92.493912 56.999073,85.487320 
	C57.006283,78.728294 57.000629,71.969254 57.000629,65.000626 
	C60.449257,65.000626 63.262856,65.000725 66.076454,65.000595 
	C68.907745,65.000465 71.742470,65.090019 74.569633,64.981956 
	C81.379196,64.721642 86.070374,59.897305 86.146187,53.191063 
	C86.229752,45.800079 81.144821,41.046337 72.835442,41.018944 
	C54.015903,40.956898 35.195934,41.029594 16.376337,40.977722 
	C11.616870,40.964603 8.399386,37.862801 8.577468,33.773285 
	C8.749960,29.812124 11.788365,27.119997 16.330378,27.014254 
	C19.326593,26.944498 22.325899,27.018320 25.323494,26.991455 
	C26.450068,26.981359 27.575720,26.868496 28.741524,26.800156 
	C28.741524,25.112318 28.741524,23.717793 28.741524,21.999384 
	C24.855114,21.999384 21.219053,21.986820 17.583105,22.001905 
	C9.064173,22.037247 4.072002,26.395834 3.999621,33.844265 
	C3.924962,41.527096 8.955041,45.988968 17.771282,45.996101 
	C36.257919,46.011063 54.744701,46.037796 73.231133,45.974064 
	C77.708893,45.958626 80.635536,47.763573 81.328621,52.284351 
	C81.953514,56.360271 79.195038,59.314449 74.231323,60.093674 
	C72.439400,60.374969 70.604164,60.468025 68.787155,60.485226 
	C63.520561,60.535091 58.253189,60.502880 52.502895,60.502880 
	C52.502895,64.458878 52.555847,67.750824 52.490974,71.040443 
	C52.382965,76.517372 52.468063,82.017609 51.965618,87.461304 
	C51.537197,92.102966 48.381077,94.701782 44.525520,94.426613 
	C40.627621,94.148438 38.123142,91.174461 38.021904,86.446548 
	C37.925659,81.951859 38.000717,77.453484 38.000664,72.956734 
	C38.000568,65.349602 38.000633,57.742477 38.000633,49.876160 
	C35.975193,50.055843 34.575996,50.179970 32.999367,50.319836 
	C32.999367,60.155117 32.892010,69.634483 33.047882,79.109520 
	C33.118294,83.389610 33.712540,87.661079 34.325615,92.708839 
M78.433449,21.981544 
	C66.333618,21.981544 54.233788,21.981544 41.871555,21.981544 
	C42.038811,24.013353 42.154202,25.415150 42.285824,27.014118 
	C56.943851,27.014118 71.249123,27.142740 85.550468,26.961493 
	C93.040779,26.866568 98.068947,21.722643 98.018166,14.876497 
	C97.963692,7.532422 93.089325,3.004506 85.123291,2.988667 
	C71.967636,2.962509 58.811836,2.958975 45.656204,2.990624 
	C38.522411,3.007786 33.670818,6.858567 33.214001,13.846769 
	C32.718311,21.429613 33.101608,29.069920 33.101608,36.774799 
	C34.863060,36.774799 36.257523,36.774799 38.018467,36.774799 
	C38.018467,30.079365 38.006596,23.615583 38.021656,17.151867 
	C38.038219,10.043621 40.431850,7.586837 47.600163,7.552853 
	C59.256855,7.497590 70.914070,7.518706 82.570877,7.559775 
	C84.222176,7.565593 85.918961,7.675150 87.513962,8.066083 
	C91.429070,9.025673 93.474609,11.604265 93.047295,15.679545 
	C92.641212,19.552387 90.005379,21.468813 86.393570,21.921564 
	C84.097984,22.209324 81.737503,21.979351 78.433449,21.981544 
z"/>
<path fill="#5BDFE4" opacity="1.000000" stroke="none" 
	d="
M34.197372,92.322647 
	C33.712540,87.661079 33.118294,83.389610 33.047882,79.109520 
	C32.892010,69.634483 32.999367,60.155117 32.999367,50.319836 
	C34.575996,50.179970 35.975193,50.055843 38.000633,49.876160 
	C38.000633,57.742477 38.000568,65.349602 38.000664,72.956734 
	C38.000717,77.453484 37.925659,81.951859 38.021904,86.446548 
	C38.123142,91.174461 40.627621,94.148438 44.525520,94.426613 
	C48.381077,94.701782 51.537197,92.102966 51.965618,87.461304 
	C52.468063,82.017609 52.382965,76.517372 52.490974,71.040443 
	C52.555847,67.750824 52.502895,64.458878 52.502895,60.502880 
	C58.253189,60.502880 63.520561,60.535091 68.787155,60.485226 
	C70.604164,60.468025 72.439400,60.374969 74.231323,60.093674 
	C79.195038,59.314449 81.953514,56.360271 81.328621,52.284351 
	C80.635536,47.763573 77.708893,45.958626 73.231133,45.974064 
	C54.744701,46.037796 36.257919,46.011063 17.771282,45.996101 
	C8.955041,45.988968 3.924962,41.527096 3.999621,33.844265 
	C4.072002,26.395834 9.064173,22.037247 17.583105,22.001905 
	C21.219053,21.986820 24.855114,21.999384 28.741524,21.999384 
	C28.741524,23.717793 28.741524,25.112318 28.741524,26.800156 
	C27.575720,26.868496 26.450068,26.981359 25.323494,26.991455 
	C22.325899,27.018320 19.326593,26.944498 16.330378,27.014254 
	C11.788365,27.119997 8.749960,29.812124 8.577468,33.773285 
	C8.399386,37.862801 11.616870,40.964603 16.376337,40.977722 
	C35.195934,41.029594 54.015903,40.956898 72.835442,41.018944 
	C81.144821,41.046337 86.229752,45.800079 86.146187,53.191063 
	C86.070374,59.897305 81.379196,64.721642 74.569633,64.981956 
	C71.742470,65.090019 68.907745,65.000465 66.076454,65.000595 
	C63.262856,65.000725 60.449257,65.000626 57.000629,65.000626 
	C57.000629,71.969254 57.006283,78.728294 56.999073,85.487320 
	C56.991600,92.493912 54.029202,97.240776 48.742336,98.744598 
	C42.814388,100.430786 38.377213,98.573105 34.197372,92.322647 
z"/>
<path fill="#58D7DC" opacity="1.000000" stroke="none" 
	d="
M78.919785,21.981544 
	C81.737503,21.979351 84.097984,22.209324 86.393570,21.921564 
	C90.005379,21.468813 92.641212,19.552387 93.047295,15.679545 
	C93.474609,11.604265 91.429070,9.025673 87.513962,8.066083 
	C85.918961,7.675150 84.222176,7.565593 82.570877,7.559775 
	C70.914070,7.518706 59.256855,7.497590 47.600163,7.552853 
	C40.431850,7.586837 38.038219,10.043621 38.021656,17.151867 
	C38.006596,23.615583 38.018467,30.079365 38.018467,36.774799 
	C36.257523,36.774799 34.863060,36.774799 33.101608,36.774799 
	C33.101608,29.069920 32.718311,21.429613 33.214001,13.846769 
	C33.670818,6.858567 38.522411,3.007786 45.656204,2.990624 
	C58.811836,2.958975 71.967636,2.962509 85.123291,2.988667 
	C93.089325,3.004506 97.963692,7.532422 98.018166,14.876497 
	C98.068947,21.722643 93.040779,26.866568 85.550468,26.961493 
	C71.249123,27.142740 56.943851,27.014118 42.285824,27.014118 
	C42.154202,25.415150 42.038811,24.013353 41.871555,21.981544 
	C54.233788,21.981544 66.333618,21.981544 78.919785,21.981544 
z"/>
</svg>